<svg xmlns="http://www.w3.org/2000/svg" width="55.436" height="42" viewBox="0 0 55.436 42">
  <g id="グループ_45" data-name="グループ 45" transform="translate(-934.288 -6198)">
    <g id="グループ_40" data-name="グループ 40">
      <g id="グループ_39" data-name="グループ 39">
        <g id="グループ_38" data-name="グループ 38">
          <g id="グループ_37" data-name="グループ 37">
            <path id="パス_22" data-name="パス 22" d="M938.749,6198l46.515,0a1.179,1.179,0,0,1,.64,2.169l-23.9,15.45-23.891-15.447A1.179,1.179,0,0,1,938.749,6198Z" fill="#cacaca"/>
          </g>
        </g>
      </g>
    </g>
    <g id="グループ_44" data-name="グループ 44">
      <g id="グループ_43" data-name="グループ 43">
        <g id="グループ_42" data-name="グループ 42">
          <g id="グループ_41" data-name="グループ 41">
            <path id="パス_23" data-name="パス 23" d="M936.726,6240c-1.25,0-2.306-10.964-2.408-12.194l-.018-.233-.012,9.962v-32.051a1.179,1.179,0,0,1,1.819-.99L962,6221.235l25.893-16.735a1.176,1.176,0,0,1,1.819.983c0,5.943,0,22.1,0,22.1s.007-.016.011-.037l-.022.1-.012,10.14a2.422,2.422,0,0,1-2.411,2.2Z" fill="#cacaca"/>
            <rect id="長方形_106" data-name="長方形 106" width="37" height="15" rx="2" transform="translate(934.288 6225)" fill="#cacaca"/>
          </g>
        </g>
      </g>
    </g>
  </g>
</svg>
